<svg width="17" height="17" fill="none" xmlns="http://www.w3.org/2000/svg"><g id="Hicon / Outline / Tick Square"><g id="Tick Square"><g id="Vector" fill="#000"><path d="M12.438 6.73a.531.531 0 00-.792-.71L9.259 8.687c-.483.54-.809.902-1.087 1.136-.266.223-.421.272-.557.272-.137 0-.292-.049-.558-.272-.278-.234-.604-.596-1.087-1.136L5.354 8a.531.531 0 00-.791.708l.642.717c.45.503.826.923 1.169 1.212.363.305.755.52 1.24.52.487 0 .878-.215 1.241-.52.344-.289.72-.709 1.17-1.212l2.412-2.695z"/><path fill-rule="evenodd" clip-rule="evenodd" d="M11.662 1.681c-.81-.087-1.83-.087-3.13-.087h-.064c-1.3 0-2.32 0-3.13.087-.825.09-1.494.276-2.065.69a4.08 4.08 0 00-.901.902c-.415.57-.601 1.24-.69 2.065-.088.81-.088 1.83-.088 3.13v.064c0 1.3 0 2.32.087 3.13.09.825.276 1.494.69 2.065.252.346.556.65.902.901.57.415 1.24.601 2.065.69.81.088 1.829.088 3.13.088h.064c1.3 0 2.32 0 3.13-.087.825-.09 1.494-.276 2.065-.69a4.08 4.08 0 00.901-.902c.415-.57.601-1.24.69-2.065.088-.81.088-1.829.088-3.13v-.064c0-1.3 0-2.32-.087-3.13-.09-.825-.276-1.494-.69-2.065a4.072 4.072 0 00-.902-.901c-.57-.415-1.24-.601-2.065-.69zm-7.765 1.55c.36-.261.82-.414 1.556-.493.745-.081 1.707-.082 3.047-.082s2.302.001 3.047.082c.735.08 1.196.232 1.556.493.255.186.48.41.666.666.261.36.414.82.493 1.556.081.745.082 1.707.082 3.047s-.001 2.302-.082 3.047c-.08.735-.232 1.196-.493 1.556a3.01 3.01 0 01-.666.666c-.36.261-.82.414-1.556.493-.745.081-1.707.082-3.047.082s-2.302-.001-3.047-.082c-.735-.08-1.196-.232-1.556-.493a3.01 3.01 0 01-.666-.666c-.261-.36-.414-.82-.493-1.556-.081-.745-.082-1.707-.082-3.047s.001-2.302.082-3.047c.08-.735.232-1.196.493-1.556.186-.255.41-.48.666-.666z"/></g></g></g></svg>