<svg width="33" height="33" fill="none" xmlns="http://www.w3.org/2000/svg"><g id="info 1"><path id="Vector" d="M17.875 22h2.063a.688.688 0 010 1.375h-5.5a.688.688 0 010-1.375H16.5v-6.875h-2.063a.688.688 0 010-1.375h2.75c.38 0 .688.308.688.688V22zM16.5 30.25c-7.594 0-13.75-6.156-13.75-13.75S8.906 2.75 16.5 2.75 30.25 8.906 30.25 16.5 24.094 30.25 16.5 30.25zm0-1.375c6.835 0 12.375-5.54 12.375-12.375S23.335 4.125 16.5 4.125 4.125 9.665 4.125 16.5 9.665 28.875 16.5 28.875zm-.688-19.25h1.376c.38 0 .687.308.687.688v1.374c0 .38-.308.688-.688.688h-1.375a.688.688 0 01-.687-.688v-1.374c0-.38.308-.688.688-.688z" fill="#3C2C26"/></g></svg>